<?xml version="1.0" encoding="utf-8"?>
<!-- Generator: Adobe Illustrator 16.0.0, SVG Export Plug-In . SVG Version: 6.00 Build 0)  -->
<!DOCTYPE svg PUBLIC "-//W3C//DTD SVG 1.1//EN" "http://www.w3.org/Graphics/SVG/1.1/DTD/svg11.dtd">
<svg version="1.1"
	 id="Layer_1" xmlns:dc="http://purl.org/dc/elements/1.1/" xmlns:cc="http://creativecommons.org/ns#" xmlns:rdf="http://www.w3.org/1999/02/22-rdf-syntax-ns#" xmlns:svg="http://www.w3.org/2000/svg" xmlns:sodipodi="http://sodipodi.sourceforge.net/DTD/sodipodi-0.dtd" xmlns:inkscape="http://www.inkscape.org/namespaces/inkscape"
	 xmlns="http://www.w3.org/2000/svg" xmlns:xlink="http://www.w3.org/1999/xlink" x="0px" y="0px" width="688.059px"
	 height="688.06px" viewBox="155.971 55.971 688.059 688.06" enable-background="new 155.971 55.971 688.059 688.06"
	 xml:space="preserve">
<g transform="translate(0,-952.36218)">
	<path fill="#585858" d="M427.971,1008.333c-149.653,0-272,122.348-272,272s122.347,272.001,272,272.001
		c57.638,0,111.143-18.133,155.25-49l178.75,179c18.744,18.744,49.256,18.744,68,0c18.745-18.744,18.745-49.255,0-68l-179-178.751
		c30.867-44.107,49-97.612,49-155.25C699.971,1130.68,577.623,1008.333,427.971,1008.333z M427.971,1104.333
		c97.769,0,176,78.23,176,176c0,97.769-78.231,176-176,176c-97.77,0-176-78.231-176-176
		C251.971,1182.563,330.201,1104.333,427.971,1104.333z"/>
</g>
</svg>
